Patient4_TMGait_0pt4_03_left_29_GRF.mot
version=1
nRows=65
nColumns=19
inDegrees=no
endheader
time	F1x	F1y	F1z	M1x	M1y	M1z	F2x	F2y	F2z	M2x	M2y	M2z	EC1x	EC1y	EC1z	EC2x	EC2y	EC2z
38.2	0.19881	11.2058	-1.3953	-2.409	3.0181	7.4643	-50.0471	764.3945	-74.8747	294.3019	104.0537	877.2614	-0.0592	0.0182	-0.0073	-0.0462	0.0165	0.9585
38.2135	0.15313	8.2421	-0.84841	-1.8433	1.9193	5.8638	-44.8725	759.0927	-74.6356	292.0137	101.8614	868.9219	-0.0592	0.0182	-0.0073	-0.0462	0.0165	0.9585
38.227	0.13621	5.7318	-0.38954	-1.3735	0.99807	4.5062	-39.7891	753.1664	-73.8482	289.5918	98.9621	859.1954	-0.0592	0.0182	-0.0073	-0.0462	0.0165	0.9585
38.2405	0.13404	3.8319	-0.044362	-1.0285	0.30956	3.4793	-34.9891	747.4783	-72.5774	287.4013	95.5046	849.0988	-0.0592	0.0182	-0.0073	-0.0462	0.0165	0.9585
38.254	0.12624	2.5463	0.18663	-0.80494	-0.1532	2.7952	-30.4894	742.9851	-70.9801	285.824	91.6948	839.7737	-0.0592	0.0182	-0.0073	-0.0462	0.0165	0.9585
38.2675	0.10615	1.7774	0.3205	-0.67759	-0.42556	2.3858	-26.2202	740.4891	-69.2531	285.1695	87.7569	832.185	-0.0592	0.0182	-0.0073	-0.0462	0.0165	0.9585
38.281	0.0647	1.387	0.38677	-0.61411	-0.56176	2.1708	-22.0863	740.4727	-67.5682	285.6137	83.8754	826.9302	-0.0592	0.0182	-0.0073	-0.0462	0.0165	0.9585
38.2945	-0.0025167	1.2155	0.40226	-0.57723	-0.60385	2.0397	-17.9804	743.0226	-66.0548	287.1711	80.1734	824.159	-0.0592	0.0182	-0.0073	-0.0462	0.0165	0.9585
38.308	-0.090827	1.097	0.39328	-0.52739	-0.60094	1.8597	-13.8232	747.8347	-64.7795	289.7004	76.7105	823.5929	-0.0592	0.0182	-0.0073	-0.0462	0.0165	0.9585
38.3215	-0.20282	0.88504	0.36753	-0.43022	-0.58382	1.5159	-9.5801	754.2478	-63.7642	292.9173	73.5041	824.5667	-0.0592	0.0182	-0.0073	-0.0462	0.0165	0.9585
38.335	-0.33327	0.42242	0.3463	-0.24643	-0.58262	0.86905	-5.247	761.3054	-62.9954	296.4207	70.54	826.0994	-0.0592	0.0182	-0.0073	-0.0462	0.0165	0.9585
38.3485	-0.47636	-0.41484	0.32856	0.05623	-0.59645	-0.19174	-0.8323	767.8771	-62.4424	299.7427	67.7835	827.0274	-0.0592	0.0182	-0.0073	-0.0462	0.0165	0.9585
38.362	-0.60876	-1.7003	0.31835	0.49794	-0.61742	-1.7499	3.6506	772.8468	-62.0674	302.4231	65.1898	826.2089	-0.0592	0.0182	-0.0073	-0.0462	0.0165	0.9585
38.3755	-0.67792	-3.4288	0.30227	1.075	-0.61286	-3.816	8.173	775.3291	-61.8359	304.0931	62.7241	822.7716	-0.0592	0.0182	-0.0073	-0.0462	0.0165	0.9585
38.389	-0.6191	-5.4731	0.25959	1.7458	-0.53748	-6.2483	12.6935	774.7691	-61.7467	304.5166	60.3962	816.2176	-0.0592	0.0182	-0.0073	-0.0462	0.0165	0.9585
38.4025	-0.3212	-7.5137	0.16498	2.4083	-0.32614	-8.6764	17.1331	771.0275	-61.8145	303.623	58.2538	806.5046	-0.0592	0.0182	-0.0073	-0.0462	0.0165	0.9585
38.416	0.34257	-8.9643	-0.019868	2.8745	0.10786	-10.4046	21.3927	764.4309	-62.0687	301.5256	56.3729	794.0945	-0.0592	0.0182	-0.0073	-0.0462	0.0165	0.9585
38.4295	1.5162	-8.9242	-0.32881	2.8531	0.84979	-10.3656	25.3656	755.6995	-62.5249	298.493	54.8181	779.8628	-0.0592	0.0182	-0.0073	-0.0462	0.0165	0.9585
38.443	3.3298	-6.0984	-0.79532	1.9252	1.9748	-7.0262	28.9208	745.7357	-63.1811	294.8653	53.6425	764.8772	-0.0592	0.0182	-0.0073	-0.0462	0.0165	0.9585
38.4565	5.8486	1.1803	-1.4277	-0.44672	3.511	1.5957	31.9091	735.32	-63.9911	290.9371	52.8633	750.0786	-0.0592	0.0182	-0.0073	-0.0462	0.0165	0.9585
38.47	9.0271	14.8214	-2.2114	-4.8776	5.4176	17.7716	34.1647	724.8391	-64.8583	286.8456	52.4534	735.9981	-0.0592	0.0182	-0.0073	-0.0462	0.0165	0.9585
38.4835	12.5865	36.7194	-3.0656	-11.9745	7.506	43.7608	35.5252	714.0715	-65.6187	282.4923	52.3153	722.5198	-0.0592	0.0182	-0.0073	-0.0462	0.0165	0.9585
38.497	15.9309	68.2296	-3.8212	-22.1699	9.3808	81.1815	35.8302	702.1257	-66.057	277.5225	52.2985	708.8146	-0.0592	0.0182	-0.0073	-0.0462	0.0165	0.9585
38.5105	18.0021	109.3369	-4.1903	-35.4519	10.3609	130.042	34.9659	687.5778	-65.9186	271.3844	52.1976	693.4692	-0.0592	0.0182	-0.0073	-0.0462	0.0165	0.9585
38.524	17.3438	157.6789	-3.7434	-51.0396	9.476	187.568	32.9377	668.8454	-64.9547	263.4799	51.7722	674.8374	-0.0592	0.0182	-0.0073	-0.0462	0.0165	0.9585
38.5375	13.1146	208.1794	-1.873	-67.2519	5.7395	247.7656	29.8667	644.739	-62.9864	253.3834	50.8089	651.5988	-0.0592	0.0182	-0.0073	-0.0462	0.0165	0.9585
38.551	6.3828	254.7118	2.0219	-82.0663	-1.1288	303.313	26.047	615.031	-59.9931	241.0623	49.187	623.2951	-0.0592	0.0182	-0.0073	-0.0462	0.0165	0.9585
38.5645	-1.1288	294.1406	7.2857	-94.4825	-9.8094	350.2521	21.936	580.7237	-56.1854	226.9593	46.9483	590.6231	-0.0592	0.0182	-0.0073	-0.0462	0.0165	0.9585
38.578	-8.224	327.0322	13.3814	-104.6943	-19.2529	389.0945	18.0576	543.4401	-51.9692	211.7522	44.2852	554.8791	-0.0592	0.0182	-0.0073	-0.0462	0.0165	0.9585
38.5915	-14.2371	355.4929	19.4513	-113.4245	-28.2774	422.2761	14.8496	504.5919	-47.6883	196.0305	41.352	517.2035	-0.0592	0.0182	-0.0073	-0.0462	0.0165	0.9585
38.605	-18.9929	381.6882	25.1345	-121.3967	-36.3682	452.3941	12.5381	464.9416	-43.4831	180.1219	38.184	478.1989	-0.0592	0.0182	-0.0073	-0.0462	0.0165	0.9585
38.6185	-22.4887	407.2413	29.9467	-129.1636	-42.9962	481.3035	11.087	424.6654	-39.3089	164.1117	34.7374	438.0023	-0.0592	0.0182	-0.0073	-0.0462	0.0165	0.9585
38.632	-24.778	433.1768	33.9464	-137.0484	-48.2196	510.2118	10.2697	383.5934	-35.0472	147.939	30.9728	396.4933	-0.0592	0.0182	-0.0073	-0.0462	0.0165	0.9585
38.6455	-25.8752	460.1898	37.181	-145.2535	-52.1292	539.8871	9.7511	341.542	-30.6219	131.5184	26.9335	353.5947	-0.0592	0.0182	-0.0073	-0.0462	0.0165	0.9585
38.659	-25.9031	488.7654	40.1236	-153.8839	-55.2842	570.9293	9.1805	298.537	-26.0766	114.833	22.7857	309.4527	-0.0592	0.0182	-0.0073	-0.0462	0.0165	0.9585
38.6725	-25.0304	519.105	43.066	-162.9666	-58.0919	603.558	8.2471	255.0055	-21.5386	98.0186	18.7575	264.6107	-0.0592	0.0182	-0.0073	-0.0462	0.0165	0.9585
38.686	-23.5748	551.1331	46.4214	-172.4437	-61.1109	637.7455	6.7641	211.861	-17.197	81.3989	15.0925	220.0937	-0.0592	0.0182	-0.0073	-0.0462	0.0165	0.9585
38.6995	-21.8926	584.6792	50.2675	-182.2538	-64.5608	673.3477	4.7442	170.4491	-13.2292	65.4677	11.9585	177.3264	-0.0592	0.0182	-0.0073	-0.0462	0.0165	0.9585
38.713	-20.2412	619.5453	54.6163	-192.3443	-68.53	710.1955	2.3682	132.2814	-9.7779	50.7899	9.4284	137.8865	-0.0592	0.0182	-0.0073	-0.0462	0.0165	0.9585
38.7265	-18.8126	655.281	59.1462	-202.6084	-72.7377	747.8234	-0.028109	98.6508	-6.9057	37.8568	7.4463	103.099	-0.0592	0.0182	-0.0073	-0.0462	0.0165	0.9585
38.74	-17.649	690.9122	63.6251	-212.7824	-76.9403	785.1392	-2.0988	70.3377	-4.6269	26.9697	5.9056	73.7593	-0.0592	0.0182	-0.0073	-0.0462	0.0165	0.9585
38.7535	-16.7283	725.0354	67.777	-222.4709	-80.8376	820.5677	-3.6142	47.541	-2.8899	18.2065	4.677	50.0806	-0.0592	0.0182	-0.0073	-0.0462	0.0165	0.9585
38.767	-15.9676	756.0089	71.4576	-231.1992	-84.2424	852.2787	-4.4665	29.9631	-1.6201	11.4559	3.6546	31.7676	-0.0592	0.0182	-0.0073	-0.0462	0.0165	0.9585
38.7805	-15.2514	782.2692	74.487	-238.5142	-86.9345	878.5433	-4.6568	17.0405	-0.74182	6.4994	2.7693	18.2669	-0.0592	0.0182	-0.0073	-0.0462	0.0165	0.9585
38.794	-14.477	802.5585	76.7765	-244.0537	-88.7889	898.019	-4.2483	8.0759	-0.18851	3.0673	1.9905	8.8652	-0.0592	0.0182	-0.0073	-0.0462	0.0165	0.9585
38.8075	-13.5531	816.0852	78.2469	-247.5971	-89.7009	909.8891	-3.4557	2.357	0.10698	0.88366	1.3373	2.8356	-0.0592	0.0182	-0.0073	-0.0462	0.0165	0.9585
38.821	-12.4516	822.6227	78.9002	-249.0916	-89.6597	913.9817	-2.5608	-0.82607	0.22276	-0.32655	0.83913	-0.54453	-0.0592	0.0182	-0.0073	-0.0462	0.0165	0.9585
38.8345	-11.1305	822.5561	78.7736	-248.6663	-88.6949	910.7804	-1.72	-2.2009	0.22075	-0.84262	0.49614	-2.031	-0.0592	0.0182	-0.0073	-0.0462	0.0165	0.9585
38.848	-9.5843	816.8182	77.9529	-246.6137	-86.8973	901.3661	-1.0376	-2.4048	0.1547	-0.90999	0.28711	-2.2745	-0.0592	0.0182	-0.0073	-0.0462	0.0165	0.9585
38.8615	-7.8241	806.7527	76.5664	-243.3474	-84.4148	887.2547	-0.52865	-1.9702	0.061656	-0.73092	0.17875	-1.8429	-0.0592	0.0182	-0.0073	-0.0462	0.0165	0.9585
38.875	-5.8985	793.9321	74.7594	-239.3493	-81.4231	870.1778	-0.18721	-1.2465	-0.027921	-0.44289	0.13805	-1.1005	-0.0592	0.0182	-0.0073	-0.0462	0.0165	0.9585
38.8885	-3.8979	779.998	72.7161	-235.1193	-78.1505	851.9311	0.022235	-0.46643	-0.099789	-0.13639	0.14045	-0.29526	-0.0592	0.0182	-0.0073	-0.0462	0.0165	0.9585
38.902	-1.9144	766.4818	70.5714	-231.1289	-74.7773	834.1544	0.13574	0.23	-0.14701	0.13762	0.15985	0.42393	-0.0592	0.0182	-0.0073	-0.0462	0.0165	0.9585
38.9155	-0.032088	754.6744	68.469	-227.7764	-71.4805	818.208	0.1733	0.80067	-0.17579	0.36245	0.18436	1.0221	-0.0592	0.0182	-0.0073	-0.0462	0.0165	0.9585
38.929	1.7217	745.5237	66.4505	-225.3584	-68.3159	805.0473	0.17989	1.2412	-0.1937	0.53699	0.20285	1.4867	-0.0592	0.0182	-0.0073	-0.0462	0.0165	0.9585
38.9425	3.3635	739.567	64.5893	-224.0373	-65.3464	795.1789	0.15236	1.5705	-0.20714	0.66842	0.21908	1.8418	-0.0592	0.0182	-0.0073	-0.0462	0.0165	0.9585
38.956	4.9734	736.9243	62.8786	-223.8436	-62.5401	788.6491	0.10445	1.8017	-0.21823	0.76285	0.23373	2.0919	-0.0592	0.0182	-0.0073	-0.0462	0.0165	0.9585
38.9695	6.6215	737.3484	61.3613	-224.6829	-59.9126	785.141	0.040253	1.9576	-0.23069	0.82676	0.25412	2.2564	-0.0592	0.0182	-0.0073	-0.0462	0.0165	0.9585
38.983	8.372	740.3336	60.0112	-226.3738	-57.4215	784.086	-0.048655	2.0433	-0.24943	0.86094	0.29187	2.3396	-0.0592	0.0182	-0.0073	-0.0462	0.0165	0.9585
38.9965	10.2641	745.2169	58.8503	-228.6742	-55.0768	784.7921	-0.15693	2.022	-0.27894	0.85306	0.35172	2.2944	-0.0592	0.0182	-0.0073	-0.0462	0.0165	0.9585
39.01	12.3331	751.2861	57.8604	-231.3211	-52.8557	786.557	-0.29833	1.8645	-0.32134	0.78779	0.44003	2.0971	-0.0592	0.0182	-0.0073	-0.0462	0.0165	0.9585
39.0235	14.5633	757.8592	57.0641	-234.0512	-50.7869	788.7624	-0.46354	1.5075	-0.3758	0.6383	0.55823	1.6715	-0.0592	0.0182	-0.0073	-0.0462	0.0165	0.9585
39.037	16.89	764.3355	56.4595	-236.6264	-48.889	790.9106	-0.66492	0.87119	-0.43772	0.37171	0.7065	0.926	-0.0592	0.0182	-0.0073	-0.0462	0.0165	0.9585
39.0505	19.2303	770.1743	56.0421	-238.833	-47.1916	792.5797	-0.8908	-0.13565	-0.5046	-0.047838	0.87809	-0.24991	-0.0592	0.0182	-0.0073	-0.0462	0.0165	0.9585
39.064	21.4755	774.8734	55.7741	-240.4841	-45.7	793.3914	-1.0976	-1.5793	-0.56921	-0.6473	1.0493	-1.9412	-0.0592	0.0182	-0.0073	-0.0462	0.0165	0.9585
